<svg width="16" height="12" viewBox="0 0 16 12" fill="none" xmlns="http://www.w3.org/2000/svg">
<path d="M7.99991 3.50001C7.50546 3.50001 7.02211 3.64663 6.61099 3.92133C6.19986 4.19604 5.87943 4.58648 5.69021 5.0433C5.50099 5.50011 5.45148 6.00278 5.54795 6.48773C5.64441 6.97269 5.88251 7.41814 6.23214 7.76777C6.58178 8.11741 7.02723 8.35551 7.51219 8.45197C7.99714 8.54843 8.4998 8.49893 8.95662 8.30971C9.41344 8.12049 9.80388 7.80006 10.0786 7.38893C10.3533 6.97781 10.4999 6.49446 10.4999 6.00001C10.4999 5.33697 10.2365 4.70108 9.76768 4.23224C9.29884 3.7634 8.66295 3.50001 7.99991 3.50001ZM7.99991 7.50001C7.70324 7.50001 7.41323 7.41203 7.16656 7.24721C6.91988 7.08239 6.72762 6.84812 6.61409 6.57403C6.50056 6.29994 6.47086 5.99834 6.52873 5.70737C6.58661 5.4164 6.72947 5.14913 6.93925 4.93935C7.14903 4.72957 7.4163 4.58671 7.70728 4.52883C7.99825 4.47095 8.29985 4.50066 8.57394 4.61419C8.84803 4.72772 9.08229 4.91998 9.24712 5.16665C9.41194 5.41333 9.49991 5.70334 9.49991 6.00001C9.49991 6.39783 9.34188 6.77936 9.06057 7.06067C8.77927 7.34197 8.39774 7.50001 7.99991 7.50001ZM12.6068 7.94626C12.392 8.45412 12.0946 8.92295 11.7268 9.33376C11.6377 9.43013 11.5143 9.48763 11.3832 9.49384C11.2522 9.50005 11.1239 9.45447 11.0261 9.36694C10.9283 9.27942 10.8689 9.15696 10.8606 9.02599C10.8523 8.89502 10.8958 8.76604 10.9818 8.66688C11.6383 7.93385 12.0013 6.98438 12.0013 6.00032C12.0013 5.01626 11.6383 4.06679 10.9818 3.33376C10.9368 3.28504 10.9019 3.22786 10.8792 3.16554C10.8565 3.10322 10.8464 3.037 10.8495 2.97074C10.8527 2.90449 10.869 2.83952 10.8975 2.77962C10.926 2.71972 10.9661 2.66609 11.0155 2.62185C11.0649 2.57761 11.1227 2.54365 11.1853 2.52194C11.248 2.50023 11.3144 2.49121 11.3806 2.4954C11.4468 2.49959 11.5115 2.51691 11.5709 2.54635C11.6304 2.57579 11.6833 2.61676 11.7268 2.66688C12.3581 3.37334 12.776 4.2445 12.9318 5.17906C13.0875 6.11362 12.9748 7.07321 12.6068 7.94626ZM4.31241 4.44313C4.0174 5.14149 3.92692 5.9093 4.05152 6.6571C4.17611 7.40491 4.51066 8.10191 5.01616 8.66688C5.10212 8.76604 5.14565 8.89502 5.13736 9.02599C5.12907 9.15696 5.06962 9.27942 4.97184 9.36694C4.87406 9.45447 4.74579 9.50005 4.6147 9.49384C4.48362 9.48763 4.36023 9.43013 4.27116 9.33376C3.45028 8.41748 2.99635 7.23053 2.99635 6.00032C2.99635 4.77011 3.45028 3.58316 4.27116 2.66688C4.35959 2.56784 4.48375 2.50799 4.61631 2.50048C4.74888 2.49298 4.87899 2.53845 4.97804 2.62688C5.07708 2.71532 5.13693 2.83947 5.14443 2.97204C5.15194 3.1046 5.10647 3.23472 5.01804 3.33376C4.72304 3.66194 4.48458 4.03683 4.31241 4.44313ZM15.4999 6.00001C15.5029 7.96359 14.7331 9.84949 13.3568 11.25C13.3113 11.2987 13.2564 11.3378 13.1956 11.365C13.1347 11.3922 13.069 11.4069 13.0024 11.4083C12.9358 11.4098 12.8695 11.3979 12.8075 11.3733C12.7456 11.3488 12.6891 11.3121 12.6415 11.2654C12.5939 11.2188 12.5562 11.163 12.5304 11.1016C12.5047 11.0401 12.4915 10.9741 12.4916 10.9074C12.4918 10.8407 12.5052 10.7748 12.5312 10.7134C12.5572 10.652 12.5952 10.5965 12.643 10.55C13.8347 9.33586 14.5024 7.70253 14.5024 6.00126C14.5024 4.29998 13.8347 2.66666 12.643 1.45251C12.5499 1.35786 12.4981 1.23008 12.4992 1.09728C12.5002 0.964481 12.554 0.83754 12.6487 0.744382C12.7433 0.651225 12.8711 0.599482 13.0039 0.600537C13.1367 0.601592 13.2636 0.655358 13.3568 0.750007C14.7331 2.15053 15.5029 4.03642 15.4999 6.00001ZM3.35679 10.5488C3.40283 10.5956 3.43919 10.6511 3.4638 10.712C3.4884 10.7729 3.50077 10.8381 3.50019 10.9038C3.49961 10.9695 3.48609 11.0344 3.46042 11.0949C3.43474 11.1554 3.3974 11.2102 3.35054 11.2563C3.30367 11.3023 3.2482 11.3387 3.18728 11.3633C3.12636 11.3879 3.06119 11.4002 2.99549 11.3997C2.92979 11.3991 2.86485 11.3856 2.80438 11.3599C2.74391 11.3342 2.68908 11.2969 2.64304 11.25C1.2669 9.84905 0.49585 7.96378 0.49585 6.00001C0.49585 4.03623 1.2669 2.15096 2.64304 0.750007C2.68857 0.701325 2.74338 0.662239 2.80424 0.635047C2.8651 0.607855 2.93078 0.593107 2.99742 0.591669C3.06406 0.590231 3.13032 0.602134 3.19229 0.626676C3.25427 0.651218 3.31071 0.687904 3.3583 0.734578C3.40589 0.781251 3.44367 0.836969 3.46941 0.898455C3.49515 0.959941 3.50834 1.02595 3.5082 1.09261C3.50806 1.15927 3.49459 1.22523 3.46859 1.2866C3.44259 1.34798 3.40457 1.40354 3.35679 1.45001C2.16508 2.66416 1.49744 4.29748 1.49744 5.99876C1.49744 7.70003 2.16508 9.33336 3.35679 10.5475V10.5488Z" fill="#1C1C1C"/>
</svg>
